#!OML:ASF I:\Actors\actors\Patient Classification 1\Patient 1\Session 1\Subject1.ASF
:FULLY-SPECIFIED
:DEGREES
529
root 1.16037 17.6753 8.11774 13.7904 12.6368 -7.46718
lowerback 10.1077 0.269147 3.55701
upperback -6.69076 1.03337 0.753257
thorax -12.9876 0.219552 -1.39323
lowerneck -14.8933 4.46195 5.2454
upperneck 33.6135 5.24641 -0.196034
head 14.1294 2.95866 -0.121513
rclavicle 1.76918e-014 -2.3059e-014
rhumerus -31.1458 17.4071 -102.722
rradius 81.8033
rwrist 4.40603
rhand -20.0096 -40.8934
rfingers 7.12502
rthumb 6.3305 -70.7788
lclavicle 1.76918e-014 -2.3059e-014
lhumerus 13.0648 -71.1362 59.6794
lradius 79.1919
lwrist 48.9502
lhand -36.0223 -30.4893
lfingers 7.12502
lthumb -9.1313 -0.707019
rfemur -0.391351 34.6258 21.6211
rtibia -2.12392
rfoot -33.0399 -41.8228
rtoes 25.0988
lfemur -9.33784 -28.0302 -11.601
ltibia 1.00016
lfoot -6.78142 28.7088
ltoes -4.61152
530
root 1.16268 17.6779 8.12332 13.5502 12.1535 -7.42288
lowerback 10.1401 0.395776 3.66101
upperback -6.62099 1.2121 0.681613
thorax -12.9144 0.292635 -1.5681
lowerneck -14.9141 4.32923 5.12669
upperneck 33.8005 5.09356 -0.207382
head 14.208 2.87723 -0.128421
rclavicle -1.57537e-014 -1.35174e-014
rhumerus -30.6673 20.1164 -104.329
rradius 81.2619
rwrist 4.0325
rhand -19.366 -40.4661
rfingers 7.12502
rthumb 6.95184 -70.332
lclavicle -1.57537e-014 -1.35174e-014
lhumerus 14.255 -70.4476 55.7024
lradius 79.3867
lwrist 49.6106
lhand -35.8581 -30.1546
lfingers 7.12502
lthumb -8.97286 -0.365404
rfemur -0.109993 34.646 21.6666
rtibia -2.05843
rfoot -32.3845 -41.4575
rtoes 24.6317
lfemur -8.70067 -27.9103 -11.9252
ltibia 0.760526
lfoot -6.89475 29.0186
ltoes -4.33353
531
root 1.16811 17.6795 8.12849 13.2674 11.7407 -7.46631
lowerback 10.1915 0.465196 3.82503
upperback -6.55287 1.32609 0.629889
thorax -12.8574 0.330774 -1.7414
lowerneck -14.9186 4.21298 5.04638
upperneck 33.9893 4.93074 -0.156195
head 14.284 2.80474 -0.118821
rclavicle -2.43014e-014 -1.66979e-014
rhumerus -30.3685 22.2675 -105.29
rradius 81.0816
rwrist 4.19579
rhand -18.5579 -40.1248
rfingers 7.12502
rthumb 7.73192 -69.9635
lclavicle -2.43014e-014 -1.66979e-014
lhumerus 15.4235 -69.9985 52.2794
lradius 79.4849
lwrist 50.2593
lhand -35.688 -29.9351
lfingers 7.12502
lthumb -8.80873 -0.13897
rfemur 0.131504 34.3231 21.7669
rtibia -1.93463
rfoot -31.3138 -40.8746
rtoes 23.7741
lfemur -8.08811 -27.7282 -12.1607
ltibia 0.578381
lfoot -7.00687 29.2152
ltoes -4.14068
532
root 1.1764 17.6805 8.1335 12.9983 11.4021 -7.53242
lowerback 10.2091 0.479645 3.95938
upperback -6.49479 1.36128 0.593659
thorax -12.7961 0.335344 -1.86396
lowerneck -14.9103 4.12275 4.99719
upperneck 34.1732 4.78 -0.0599012
head 14.3561 2.74739 -0.0946235
rclavicle 2.30093e-014 -4.77083e-015
rhumerus -30.209 23.6516 -105.576
rradius 81.199
rwrist 4.80627
rhand -17.9297 -39.8282
rfingers 7.12502
rthumb 8.33814 -69.6436
lclavicle 2.30093e-014 -4.77083e-015
lhumerus 16.4885 -69.7552 49.6165
lradius 79.5203
lwrist 50.7718
lhand -35.4532 -29.8687
lfingers 7.12502
lthumb -8.58212 -0.0630984
rfemur 0.274082 33.6864 21.8108
rtibia -1.76171
rfoot -29.9259 -40.111
rtoes 22.5773
lfemur -7.56696 -27.5435 -12.3532
ltibia 0.472499
lfoot -7.11901 29.3391
ltoes -3.98733
533
root 1.18751 17.6812 8.13807 12.7624 11.1517 -7.6298
lowerback 10.1726 0.435282 4.0651
upperback -6.45218 1.313 0.583912
thorax -12.7258 0.304644 -1.92309
lowerneck -14.878 4.07057 4.98989
upperneck 34.3368 4.66995 0.0434015
head 14.417 2.71363 -0.0686874
rclavicle -2.24627e-014 -2.06736e-014
rhumerus -30.1677 24.2685 -105.236
rradius 81.5215
rwrist 5.45377
rhand -17.84 -39.7918
rfingers 7.12502
rthumb 8.42472 -69.6038
lclavicle -2.24627e-014 -2.06736e-014
lhumerus 17.2953 -69.6731 47.9485
lradius 79.5591
lwrist 51.0201
lhand -35.2611 -29.95
lfingers 7.12502
lthumb -8.39673 -0.136928
rfemur 0.296207 32.783 21.803
rtibia -1.54588
rfoot -28.3172 -39.2227
rtoes 21.0866
lfemur -7.16827 -27.3917 -12.478
ltibia 0.446271
lfoot -7.23706 29.4099
ltoes -3.83658
534
root 1.20101 17.682 8.14216 12.5791 10.9934 -7.77324
lowerback 10.0662 0.329136 4.15336
upperback -6.43225 1.17909 0.607438
thorax -12.6455 0.236863 -1.91729
lowerneck -14.8089 4.06755 5.03903
upperneck 34.4664 4.62437 0.12329
head 14.4593 2.7113 -0.0524015
rclavicle 3.23025e-015 2.22639e-014
rhumerus -30.2062 24.1957 -104.315
rradius 81.9398
rwrist 5.88839
rhand -18.3224 -39.9145
rfingers 7.12502
rthumb 7.95917 -69.7446
lclavicle 3.23025e-015 2.22639e-014
lhumerus 17.6274 -69.6774 47.5233
lradius 79.6559
lwrist 50.9565
lhand -35.1723 -30.0907
lfingers 7.12502
lthumb -8.31105 -0.274236
rfemur 0.180557 31.699 21.7628
rtibia -1.29112
rfoot -26.6226 -38.2723
rtoes 19.4211
lfemur -6.91947 -27.299 -12.5013
ltibia 0.499129
lfoot -7.36432 29.4446
ltoes -3.65814
535
root 1.21603 17.6833 8.14592 12.4789 10.9118 -7.9386
lowerback 9.8795 0.163894 4.19877
upperback -6.44477 0.957275 0.650687
thorax -12.5601 0.131923 -1.84734
lowerneck -14.7016 4.12023 5.14821
upperneck 34.561 4.64921 0.188619
head 14.4821 2.74455 -0.0418922
rclavicle -1.37658e-014 -3.97569e-015
rhumerus -30.3048 23.6167 -102.903
rradius 82.3779
rwrist 5.97774
rhand -19.2127 -40.1544
rfingers 7.12502
rthumb 7.09984 -70.0153
lclavicle -1.37658e-014 -3.97569e-015
lhumerus 17.307 -69.6988 48.49
lradius 79.822
lwrist 50.5906
lhand -35.1485 -30.2521
lfingers 7.12502
lthumb -8.28805 -0.434707
rfemur -0.0929469 30.5225 21.6657
rtibia -0.994693
rfoot -24.9705 -37.3102
rtoes 17.7135
lfemur -6.85085 -27.2857 -12.4316
ltibia 0.632195
lfoot -7.50919 29.4631
ltoes -3.40503
